Coordinates
version=1
nRows=27
nColumns=19
inDegrees=yes

Units are S.I. units (second, meters, Newtons, ...)
If the header above contains a line with 'inDegrees', this indicates whether rotational values are in degrees (yes) or radians (no).

endheader
time	pelvis_tilt	pelvis_list	pelvis_rotation	pelvis_tx	pelvis_ty	pelvis_tz	hip_flexion_r	hip_adduction_r	hip_rotation_r	knee_angle_r	knee_angle_r_beta	ankle_angle_r	hip_flexion_l	hip_adduction_l	hip_rotation_l	knee_angle_l	knee_angle_l_beta	ankle_angle_l
     13.34000000	     -4.33574221	     11.19414497	      4.87064598	      2.40955871	      1.02894721	      1.02407360	    -17.76850913	    -11.39844945	    -10.64171915	     67.02212510	      1.16975675	    -21.53141668	     29.87918571	     15.29093454	    -18.53785736	     15.86453538	      0.27688838	     -4.41169266
     13.34666667	     -3.86806133	     11.98588881	      5.59986990	      2.40829545	      1.02533488	      1.02361307	    -16.98124213	    -12.52844636	    -11.40914149	     71.17196331	      1.24218509	    -21.06027921	     29.19502214	     16.28245132	    -18.85006484	     17.71678343	      0.30921620	     -3.83985474
     13.35333333	     -4.15021747	     12.84344182	      6.37369346	      2.40718166	      1.02059372	      1.02335723	    -15.28266666	    -13.89621584	    -11.96464903	     75.43511985	      1.31659121	    -20.40178062	     29.36006658	     17.24462356	    -19.34378824	     20.08403272	      0.35053250	     -2.91856142
     13.36000000	     -3.63045372	     13.65190961	      7.08250262	      2.40540313	      1.01645430	      1.02357632	    -14.36991960	    -15.00097188	    -12.35916035	     79.49724694	      1.38748871	    -19.42234558	     28.70985159	     18.06331041	    -19.55301301	     22.87355268	      0.39921881	     -1.45762920
     13.36666667	     -4.47063309	     14.06237774	      7.86415856	      2.40383811	      1.01070290	      1.02392654	    -11.69288933	    -15.90886753	    -12.20376978	     83.70771176	      1.46097518	    -18.29728098	     29.56617991	     18.47809558	    -19.75097178	     26.01915081	      0.45411985	      0.23141281
     13.37333333	     -3.87360071	     14.79962901	      8.41428613	      2.40184707	      1.00649505	      1.02486209	    -10.61034545	    -16.94390618	    -12.15234506	     87.53802096	      1.52782669	    -17.02908840	     28.67502443	     19.15898127	    -19.55477671	     28.94095465	      0.50511495	      2.42559088
     13.38000000	     -4.85247898	     14.85544207	      8.90829598	      2.39979482	      1.00067577	      1.02590518	     -7.28845567	    -17.48144280	    -11.21351218	     91.54016448	      1.59767727	    -15.70498776	     29.59067937	     19.15467176	    -19.45040509	     32.09117252	      0.56009662	      4.68489479
     13.38666667	     -4.28144460	     15.38059047	      9.34329312	      2.39751362	      0.99673828	      1.02715082	     -5.85006888	    -18.30943064	    -10.74076812	     95.04665326	      1.65887704	    -14.39351081	     28.51302923	     19.65311483	    -18.83613477	     34.79941106	      0.60736430	      7.23299370
     13.39333333	     -5.16654810	     15.01691325	      9.62363399	      2.39503248	      0.99165905	      1.02841944	     -2.16062127	    -18.34315961	     -9.31927829	     98.62917942	      1.72140392	    -13.17169226	     29.10002207	     19.28050214	    -18.26140022	     37.54762043	      0.65532960	      9.83510604
     13.40000000	     -4.55337706	     15.36552983	      9.90174777	      2.39262011	      0.98859793	      1.02965823	     -0.43876102	    -19.00382368	     -8.48467151	    101.66620258	      1.77440997	    -11.98654106	     27.63815143	     19.64498665	    -17.31934958	     39.66468100	      0.69227928	     12.49211695
     13.40666667	     -5.06240937	     14.84316506	      9.72583949	      2.38988411	      0.98497143	      1.03112678	      3.27987965	    -18.76706532	     -6.59609024	    104.67426704	      1.82691060	    -11.00488264	     27.49378347	     19.00395050	    -16.70506316	     41.67211336	      0.72731558	     15.00845971
     13.41333333	     -4.49896251	     14.92110429	      9.94466527	      2.38752480	      0.98310880	      1.03194553	      5.32382642	    -19.14960177	     -5.57207340	    107.08828284	      1.86904313	    -10.03719785	     25.66495644	     19.16428466	    -15.45486317	     43.02707197	      0.75096407	     17.42914515
     13.42000000	     -4.96393694	     14.37682781	      9.52329845	      2.38496697	      0.98070882	      1.03308354	      9.22046852	    -18.81776747	     -3.44773349	    109.43232630	      1.90995440	     -9.24250747	     25.03430188	     18.48560859	    -14.86618425	     44.15452968	      0.77064192	     19.59108658
     13.42666667	     -4.39034296	     14.21497744	      9.71812703	      2.38259861	      0.98024853	      1.03322745	     11.42386193	    -18.94915372	     -2.41393022	    111.13410499	      1.93965604	     -8.50200103	     22.77743392	     18.45809838	    -13.34309704	     44.70831871	      0.78030736	     21.31264943
     13.43333333	     -4.18201909	     13.65696461	      8.82581813	      2.38074502	      0.97984241	      1.03422412	     14.63046378	    -18.32002965	     -0.18813588	    112.59175639	      1.96509686	     -7.65319309	     20.91590511	     17.55948549	    -13.08027978	     44.86394617	      0.78302358	     23.24623799
     13.44000000	     -3.94254089	     13.22286229	      8.91069560	      2.37923004	      0.98025558	      1.03369097	     17.20438522	    -18.14656244	      0.84780420	    113.52587123	      1.98140024	     -6.80917513	     18.56245761	     17.23386727	    -11.70814410	     44.56497093	      0.77780547	     24.61652204
     13.44666667	     -4.07500296	     12.70997586	      7.96529159	      2.37781712	      0.98059986	      1.03389623	     20.71363532	    -17.49761041	      3.01584969	    114.26862901	      1.99436381	     -6.02357269	     16.64611255	     16.52165227	    -11.51978800	     43.87852927	      0.76582481	     25.60361348
     13.45333333	     -4.09047925	     12.04752065	      8.04467420	      2.37681065	      0.98184647	      1.03261977	     23.42668015	    -17.06725053	      3.80047565	    114.45062297	      1.99754020	     -5.09735234	     14.24254420	     16.01998758	    -10.11478812	     42.91064941	      0.74893212	     26.18089569
     13.46000000	     -4.28595153	     11.28326660	      7.97838114	      2.37642596	      0.98339282	      1.03109251	     26.24341663	    -16.50917067	      4.54758400	    114.24917415	      1.99402426	     -4.10390424	     11.87069304	     15.35951316	     -8.98185888	     41.57088401	      0.72554880	     26.44851383
     13.46666667	     -4.43441906	     10.54519510	      6.80480434	      2.37637965	      0.98509357	      1.03061787	     29.32039894	    -15.36605976	      6.20076984	    113.81135445	      1.98638286	     -3.17010927	      9.46027359	     14.45610225	     -9.20511263	     39.84697059	      0.69546083	     26.25931751
     13.47333333	     -4.99860985	      9.70070030	      6.77849034	      2.37678589	      0.98694239	      1.02859484	     32.20567227	    -14.76119356	      6.53157067	    112.94606468	      1.97128071	     -2.14736908	      7.27481531	     13.76052023	     -8.23353671	     38.02611867	      0.66368097	     25.51318427
     13.48000000	     -5.71072282	      8.79941713	      6.74512807	      2.37757698	      0.98895120	      1.02644689	     35.06341261	    -14.11354317	      6.66393364	    111.75821516	      1.95054882	     -1.05664569	      5.20964636	     13.00360034	     -7.32592038	     36.03437914	      0.62891856	     24.24008444
     13.48666667	     -6.54137797	      7.85564620	      6.72072920	      2.37880128	      0.99106903	      1.02421699	     37.85986708	    -13.48527118	      6.55745508	    110.27218186	      1.92461265	     -0.04810745	      3.25441290	     12.13360976	     -6.70037782	     33.91753432	      0.59197265	     22.38687856
     13.49333333	     -6.84669165	      6.28618186	      6.13039260	      2.38056483	      0.99423516	      1.02251185	     39.89718046	    -11.84043857	      6.19390774	    108.31084245	      1.89038082	      0.78683187	      0.86625044	     10.45789368	     -6.78728847	     31.71684022	      0.55356329	     20.16477432
     13.50000000	     -7.85750753	      5.44293210	      6.25586580	      2.38235375	      0.99650018	      1.02005688	     42.47080958	    -11.55363128	      5.61744002	    106.28930977	      1.85509842	      1.72514467	     -0.78227828	      9.61274272	     -6.52327443	     29.60015721	      0.51662020	     17.02922526
     13.50666667	     -7.22846721	      3.40599263	      6.31374531	      2.38496753	      1.00162394	      1.01738699	     42.67792434	    -10.07851584	      3.80039743	    103.50339465	      1.80647502	      2.57873653	     -4.11346106	      7.31107258	     -6.26710355	     27.23083851	      0.47526779	     13.78133398
     13.51333333	     -7.35580724	      1.89228914	      6.64764510	      2.38745677	      1.00570147	      1.01462267	     43.64778253	     -9.38677799	      2.12297047	    100.67140497	      1.75704748	      3.32604087	     -6.44114125	      5.55333552	     -6.17439622	     25.12917665	      0.43858687	      9.87724379
